<?xml version="1.0" encoding="utf-8" standalone="no"?>
<!DOCTYPE svg PUBLIC "-//W3C//DTD SVG 1.1//EN"
  "http://www.w3.org/Graphics/SVG/1.1/DTD/svg11.dtd">
<!-- Created with matplotlib (https://matplotlib.org/) -->
<svg height="1243.354275pt" version="1.1" viewBox="0 0 2349.5925 1243.354275" width="2349.5925pt" xmlns="http://www.w3.org/2000/svg" xmlns:xlink="http://www.w3.org/1999/xlink">
 <defs>
  <style type="text/css">
*{stroke-linecap:butt;stroke-linejoin:round;}
  </style>
 </defs>
 <g id="figure_1">
  <g id="patch_1">
   <path d="M 0 1243.354275 
L 2349.5925 1243.354275 
L 2349.5925 0 
L 0 0 
z
" style="fill:#ffffff;"/>
  </g>
  <g id="axes_1">
   <g id="patch_2">
    <path d="M 110.3925 1133.915313 
L 2342.3925 1133.915313 
L 2342.3925 46.715312 
L 110.3925 46.715312 
z
" style="fill:#eaeaf2;"/>
   </g>
   <g id="matplotlib.axis_1">
    <g id="xtick_1">
     <g id="line2d_1">
      <path clip-path="url(#p99fec6e532)" d="M 211.847045 1133.915313 
L 211.847045 46.715312 
" style="fill:none;stroke:#ffffff;stroke-linecap:round;"/>
     </g>
     <g id="text_1">
      <!-- AAA -->
      <defs>
       <path d="M -0.140625 0 
L 27.34375 71.578125 
L 37.546875 71.578125 
L 66.84375 0 
L 56.0625 0 
L 47.703125 21.6875 
L 17.78125 21.6875 
L 9.90625 0 
z
M 20.515625 29.390625 
L 44.78125 29.390625 
L 37.3125 49.21875 
Q 33.890625 58.25 32.234375 64.0625 
Q 30.859375 57.171875 28.375 50.390625 
z
" id="ArialMT-65"/>
      </defs>
      <g style="fill:#262626;" transform="translate(205.213629 1193.59664)rotate(-60)scale(0.24 -0.24)">
       <use xlink:href="#ArialMT-65"/>
       <use x="66.699219" xlink:href="#ArialMT-65"/>
       <use x="133.398438" xlink:href="#ArialMT-65"/>
      </g>
     </g>
    </g>
    <g id="xtick_2">
     <g id="line2d_2">
      <path clip-path="url(#p99fec6e532)" d="M 244.054838 1133.915313 
L 244.054838 46.715312 
" style="fill:none;stroke:#ffffff;stroke-linecap:round;"/>
     </g>
     <g id="text_2">
      <!-- AAC -->
      <defs>
       <path d="M 58.796875 25.09375 
L 68.265625 22.703125 
Q 65.28125 11.03125 57.546875 4.90625 
Q 49.8125 -1.21875 38.625 -1.21875 
Q 27.046875 -1.21875 19.796875 3.484375 
Q 12.546875 8.203125 8.765625 17.140625 
Q 4.984375 26.078125 4.984375 36.328125 
Q 4.984375 47.515625 9.25 55.828125 
Q 13.53125 64.15625 21.40625 68.46875 
Q 29.296875 72.796875 38.765625 72.796875 
Q 49.515625 72.796875 56.828125 67.328125 
Q 64.15625 61.859375 67.046875 51.953125 
L 57.71875 49.75 
Q 55.21875 57.5625 50.484375 61.125 
Q 45.75 64.703125 38.578125 64.703125 
Q 30.328125 64.703125 24.78125 60.734375 
Q 19.234375 56.78125 16.984375 50.109375 
Q 14.75 43.453125 14.75 36.375 
Q 14.75 27.25 17.40625 20.4375 
Q 20.0625 13.625 25.671875 10.25 
Q 31.296875 6.890625 37.84375 6.890625 
Q 45.796875 6.890625 51.3125 11.46875 
Q 56.84375 16.0625 58.796875 25.09375 
z
" id="ArialMT-67"/>
      </defs>
      <g style="fill:#262626;" transform="translate(237.090484 1194.743041)rotate(-60)scale(0.24 -0.24)">
       <use xlink:href="#ArialMT-65"/>
       <use x="66.699219" xlink:href="#ArialMT-65"/>
       <use x="133.398438" xlink:href="#ArialMT-67"/>
      </g>
     </g>
    </g>
    <g id="xtick_3">
     <g id="line2d_3">
      <path clip-path="url(#p99fec6e532)" d="M 276.26263 1133.915313 
L 276.26263 46.715312 
" style="fill:none;stroke:#ffffff;stroke-linecap:round;"/>
     </g>
     <g id="text_3">
      <!-- AAG -->
      <defs>
       <path d="M 41.21875 28.078125 
L 41.21875 36.46875 
L 71.53125 36.53125 
L 71.53125 9.96875 
Q 64.546875 4.390625 57.125 1.578125 
Q 49.703125 -1.21875 41.890625 -1.21875 
Q 31.34375 -1.21875 22.71875 3.296875 
Q 14.109375 7.8125 9.71875 16.359375 
Q 5.328125 24.90625 5.328125 35.453125 
Q 5.328125 45.90625 9.6875 54.953125 
Q 14.0625 64.015625 22.265625 68.40625 
Q 30.46875 72.796875 41.15625 72.796875 
Q 48.921875 72.796875 55.1875 70.28125 
Q 61.46875 67.78125 65.03125 63.28125 
Q 68.609375 58.796875 70.453125 51.5625 
L 61.921875 49.21875 
Q 60.296875 54.6875 57.90625 57.8125 
Q 55.515625 60.9375 51.0625 62.8125 
Q 46.625 64.703125 41.21875 64.703125 
Q 34.71875 64.703125 29.984375 62.71875 
Q 25.25 60.75 22.34375 57.515625 
Q 19.4375 54.296875 17.828125 50.4375 
Q 15.09375 43.796875 15.09375 36.03125 
Q 15.09375 26.46875 18.390625 20.015625 
Q 21.6875 13.578125 27.984375 10.453125 
Q 34.28125 7.328125 41.359375 7.328125 
Q 47.515625 7.328125 53.375 9.6875 
Q 59.234375 12.0625 62.25 14.75 
L 62.25 28.078125 
z
" id="ArialMT-71"/>
      </defs>
      <g style="fill:#262626;" transform="translate(268.964526 1195.899185)rotate(-60)scale(0.24 -0.24)">
       <use xlink:href="#ArialMT-65"/>
       <use x="66.699219" xlink:href="#ArialMT-65"/>
       <use x="133.398438" xlink:href="#ArialMT-71"/>
      </g>
     </g>
    </g>
    <g id="xtick_4">
     <g id="line2d_4">
      <path clip-path="url(#p99fec6e532)" d="M 308.470422 1133.915313 
L 308.470422 46.715312 
" style="fill:none;stroke:#ffffff;stroke-linecap:round;"/>
     </g>
     <g id="text_4">
      <!-- AAT -->
      <defs>
       <path d="M 25.921875 0 
L 25.921875 63.140625 
L 2.34375 63.140625 
L 2.34375 71.578125 
L 59.078125 71.578125 
L 59.078125 63.140625 
L 35.40625 63.140625 
L 35.40625 0 
z
" id="ArialMT-84"/>
      </defs>
      <g style="fill:#262626;" transform="translate(302.617006 1190.894641)rotate(-60)scale(0.24 -0.24)">
       <use xlink:href="#ArialMT-65"/>
       <use x="66.699219" xlink:href="#ArialMT-65"/>
       <use x="126.023438" xlink:href="#ArialMT-84"/>
      </g>
     </g>
    </g>
    <g id="xtick_5">
     <g id="line2d_5">
      <path clip-path="url(#p99fec6e532)" d="M 340.678214 1133.915313 
L 340.678214 46.715312 
" style="fill:none;stroke:#ffffff;stroke-linecap:round;"/>
     </g>
     <g id="text_5">
      <!-- ACA -->
      <g style="fill:#262626;" transform="translate(333.713861 1194.743041)rotate(-60)scale(0.24 -0.24)">
       <use xlink:href="#ArialMT-65"/>
       <use x="66.699219" xlink:href="#ArialMT-67"/>
       <use x="138.916016" xlink:href="#ArialMT-65"/>
      </g>
     </g>
    </g>
    <g id="xtick_6">
     <g id="line2d_6">
      <path clip-path="url(#p99fec6e532)" d="M 372.886006 1133.915313 
L 372.886006 46.715312 
" style="fill:none;stroke:#ffffff;stroke-linecap:round;"/>
     </g>
     <g id="text_6">
      <!-- ACC -->
      <g style="fill:#262626;" transform="translate(365.590715 1195.889442)rotate(-60)scale(0.24 -0.24)">
       <use xlink:href="#ArialMT-65"/>
       <use x="66.699219" xlink:href="#ArialMT-67"/>
       <use x="138.916016" xlink:href="#ArialMT-67"/>
      </g>
     </g>
    </g>
    <g id="xtick_7">
     <g id="line2d_7">
      <path clip-path="url(#p99fec6e532)" d="M 405.093799 1133.915313 
L 405.093799 46.715312 
" style="fill:none;stroke:#ffffff;stroke-linecap:round;"/>
     </g>
     <g id="text_7">
      <!-- ACG -->
      <g style="fill:#262626;" transform="translate(397.464758 1197.045586)rotate(-60)scale(0.24 -0.24)">
       <use xlink:href="#ArialMT-65"/>
       <use x="66.699219" xlink:href="#ArialMT-67"/>
       <use x="138.916016" xlink:href="#ArialMT-71"/>
      </g>
     </g>
    </g>
    <g id="xtick_8">
     <g id="line2d_8">
      <path clip-path="url(#p99fec6e532)" d="M 437.301591 1133.915313 
L 437.301591 46.715312 
" style="fill:none;stroke:#ffffff;stroke-linecap:round;"/>
     </g>
     <g id="text_8">
      <!-- ACT -->
      <g style="fill:#262626;" transform="translate(430.674737 1193.573907)rotate(-60)scale(0.24 -0.24)">
       <use xlink:href="#ArialMT-65"/>
       <use x="66.699219" xlink:href="#ArialMT-67"/>
       <use x="138.916016" xlink:href="#ArialMT-84"/>
      </g>
     </g>
    </g>
    <g id="xtick_9">
     <g id="line2d_9">
      <path clip-path="url(#p99fec6e532)" d="M 469.509383 1133.915313 
L 469.509383 46.715312 
" style="fill:none;stroke:#ffffff;stroke-linecap:round;"/>
     </g>
     <g id="text_9">
      <!-- AGA -->
      <g style="fill:#262626;" transform="translate(462.211279 1195.899185)rotate(-60)scale(0.24 -0.24)">
       <use xlink:href="#ArialMT-65"/>
       <use x="66.699219" xlink:href="#ArialMT-71"/>
       <use x="144.482422" xlink:href="#ArialMT-65"/>
      </g>
     </g>
    </g>
    <g id="xtick_10">
     <g id="line2d_10">
      <path clip-path="url(#p99fec6e532)" d="M 501.717175 1133.915313 
L 501.717175 46.715312 
" style="fill:none;stroke:#ffffff;stroke-linecap:round;"/>
     </g>
     <g id="text_10">
      <!-- AGC -->
      <g style="fill:#262626;" transform="translate(494.088134 1197.045586)rotate(-60)scale(0.24 -0.24)">
       <use xlink:href="#ArialMT-65"/>
       <use x="66.699219" xlink:href="#ArialMT-71"/>
       <use x="144.482422" xlink:href="#ArialMT-67"/>
      </g>
     </g>
    </g>
    <g id="xtick_11">
     <g id="line2d_11">
      <path clip-path="url(#p99fec6e532)" d="M 533.924968 1133.915313 
L 533.924968 46.715312 
" style="fill:none;stroke:#ffffff;stroke-linecap:round;"/>
     </g>
     <g id="text_11">
      <!-- AGG -->
      <g style="fill:#262626;" transform="translate(525.962176 1198.20173)rotate(-60)scale(0.24 -0.24)">
       <use xlink:href="#ArialMT-65"/>
       <use x="66.699219" xlink:href="#ArialMT-71"/>
       <use x="144.482422" xlink:href="#ArialMT-71"/>
      </g>
     </g>
    </g>
    <g id="xtick_12">
     <g id="line2d_12">
      <path clip-path="url(#p99fec6e532)" d="M 566.13276 1133.915313 
L 566.13276 46.715312 
" style="fill:none;stroke:#ffffff;stroke-linecap:round;"/>
     </g>
     <g id="text_12">
      <!-- AGT -->
      <g style="fill:#262626;" transform="translate(559.172156 1194.730051)rotate(-60)scale(0.24 -0.24)">
       <use xlink:href="#ArialMT-65"/>
       <use x="66.699219" xlink:href="#ArialMT-71"/>
       <use x="144.482422" xlink:href="#ArialMT-84"/>
      </g>
     </g>
    </g>
    <g id="xtick_13">
     <g id="line2d_13">
      <path clip-path="url(#p99fec6e532)" d="M 598.340552 1133.915313 
L 598.340552 46.715312 
" style="fill:none;stroke:#ffffff;stroke-linecap:round;"/>
     </g>
     <g id="text_13">
      <!-- ATA -->
      <g style="fill:#262626;" transform="translate(592.929636 1189.361776)rotate(-60)scale(0.24 -0.24)">
       <use xlink:href="#ArialMT-65"/>
       <use x="59.324219" xlink:href="#ArialMT-84"/>
       <use x="113.033203" xlink:href="#ArialMT-65"/>
      </g>
     </g>
    </g>
    <g id="xtick_14">
     <g id="line2d_14">
      <path clip-path="url(#p99fec6e532)" d="M 630.548344 1133.915313 
L 630.548344 46.715312 
" style="fill:none;stroke:#ffffff;stroke-linecap:round;"/>
     </g>
     <g id="text_14">
      <!-- ATC -->
      <g style="fill:#262626;" transform="translate(624.363991 1192.041042)rotate(-60)scale(0.24 -0.24)">
       <use xlink:href="#ArialMT-65"/>
       <use x="59.324219" xlink:href="#ArialMT-84"/>
       <use x="120.408203" xlink:href="#ArialMT-67"/>
      </g>
     </g>
    </g>
    <g id="xtick_15">
     <g id="line2d_15">
      <path clip-path="url(#p99fec6e532)" d="M 662.756136 1133.915313 
L 662.756136 46.715312 
" style="fill:none;stroke:#ffffff;stroke-linecap:round;"/>
     </g>
     <g id="text_15">
      <!-- ATG -->
      <g style="fill:#262626;" transform="translate(656.238033 1193.197186)rotate(-60)scale(0.24 -0.24)">
       <use xlink:href="#ArialMT-65"/>
       <use x="59.324219" xlink:href="#ArialMT-84"/>
       <use x="120.408203" xlink:href="#ArialMT-71"/>
      </g>
     </g>
    </g>
    <g id="xtick_16">
     <g id="line2d_16">
      <path clip-path="url(#p99fec6e532)" d="M 694.963929 1133.915313 
L 694.963929 46.715312 
" style="fill:none;stroke:#ffffff;stroke-linecap:round;"/>
     </g>
     <g id="text_16">
      <!-- ATT -->
      <g style="fill:#262626;" transform="translate(689.448012 1189.725506)rotate(-60)scale(0.24 -0.24)">
       <use xlink:href="#ArialMT-65"/>
       <use x="59.324219" xlink:href="#ArialMT-84"/>
       <use x="120.408203" xlink:href="#ArialMT-84"/>
      </g>
     </g>
    </g>
    <g id="xtick_17">
     <g id="line2d_17">
      <path clip-path="url(#p99fec6e532)" d="M 727.171721 1133.915313 
L 727.171721 46.715312 
" style="fill:none;stroke:#ffffff;stroke-linecap:round;"/>
     </g>
     <g id="text_17">
      <!-- CAA -->
      <g style="fill:#262626;" transform="translate(720.207367 1194.743041)rotate(-60)scale(0.24 -0.24)">
       <use xlink:href="#ArialMT-67"/>
       <use x="72.216797" xlink:href="#ArialMT-65"/>
       <use x="138.916016" xlink:href="#ArialMT-65"/>
      </g>
     </g>
    </g>
    <g id="xtick_18">
     <g id="line2d_18">
      <path clip-path="url(#p99fec6e532)" d="M 759.379513 1133.915313 
L 759.379513 46.715312 
" style="fill:none;stroke:#ffffff;stroke-linecap:round;"/>
     </g>
     <g id="text_18">
      <!-- CAC -->
      <g style="fill:#262626;" transform="translate(752.084222 1195.889442)rotate(-60)scale(0.24 -0.24)">
       <use xlink:href="#ArialMT-67"/>
       <use x="72.216797" xlink:href="#ArialMT-65"/>
       <use x="138.916016" xlink:href="#ArialMT-67"/>
      </g>
     </g>
    </g>
    <g id="xtick_19">
     <g id="line2d_19">
      <path clip-path="url(#p99fec6e532)" d="M 791.587305 1133.915313 
L 791.587305 46.715312 
" style="fill:none;stroke:#ffffff;stroke-linecap:round;"/>
     </g>
     <g id="text_19">
      <!-- CAG -->
      <g style="fill:#262626;" transform="translate(783.958264 1197.045586)rotate(-60)scale(0.24 -0.24)">
       <use xlink:href="#ArialMT-67"/>
       <use x="72.216797" xlink:href="#ArialMT-65"/>
       <use x="138.916016" xlink:href="#ArialMT-71"/>
      </g>
     </g>
    </g>
    <g id="xtick_20">
     <g id="line2d_20">
      <path clip-path="url(#p99fec6e532)" d="M 823.795097 1133.915313 
L 823.795097 46.715312 
" style="fill:none;stroke:#ffffff;stroke-linecap:round;"/>
     </g>
     <g id="text_20">
      <!-- CAT -->
      <g style="fill:#262626;" transform="translate(817.610744 1192.041042)rotate(-60)scale(0.24 -0.24)">
       <use xlink:href="#ArialMT-67"/>
       <use x="72.216797" xlink:href="#ArialMT-65"/>
       <use x="131.541016" xlink:href="#ArialMT-84"/>
      </g>
     </g>
    </g>
    <g id="xtick_21">
     <g id="line2d_21">
      <path clip-path="url(#p99fec6e532)" d="M 856.00289 1133.915313 
L 856.00289 46.715312 
" style="fill:none;stroke:#ffffff;stroke-linecap:round;"/>
     </g>
     <g id="text_21">
      <!-- CCA -->
      <g style="fill:#262626;" transform="translate(848.707598 1195.889442)rotate(-60)scale(0.24 -0.24)">
       <use xlink:href="#ArialMT-67"/>
       <use x="72.216797" xlink:href="#ArialMT-67"/>
       <use x="144.433594" xlink:href="#ArialMT-65"/>
      </g>
     </g>
    </g>
    <g id="xtick_22">
     <g id="line2d_22">
      <path clip-path="url(#p99fec6e532)" d="M 888.210682 1133.915313 
L 888.210682 46.715312 
" style="fill:none;stroke:#ffffff;stroke-linecap:round;"/>
     </g>
     <g id="text_22">
      <!-- CCC -->
      <g style="fill:#262626;" transform="translate(880.584453 1197.035843)rotate(-60)scale(0.24 -0.24)">
       <use xlink:href="#ArialMT-67"/>
       <use x="72.216797" xlink:href="#ArialMT-67"/>
       <use x="144.433594" xlink:href="#ArialMT-67"/>
      </g>
     </g>
    </g>
    <g id="xtick_23">
     <g id="line2d_23">
      <path clip-path="url(#p99fec6e532)" d="M 920.418474 1133.915313 
L 920.418474 46.715312 
" style="fill:none;stroke:#ffffff;stroke-linecap:round;"/>
     </g>
     <g id="text_23">
      <!-- CCG -->
      <g style="fill:#262626;" transform="translate(912.458495 1198.191987)rotate(-60)scale(0.24 -0.24)">
       <use xlink:href="#ArialMT-67"/>
       <use x="72.216797" xlink:href="#ArialMT-67"/>
       <use x="144.433594" xlink:href="#ArialMT-71"/>
      </g>
     </g>
    </g>
    <g id="xtick_24">
     <g id="line2d_24">
      <path clip-path="url(#p99fec6e532)" d="M 952.626266 1133.915313 
L 952.626266 46.715312 
" style="fill:none;stroke:#ffffff;stroke-linecap:round;"/>
     </g>
     <g id="text_24">
      <!-- CCT -->
      <g style="fill:#262626;" transform="translate(945.668475 1194.720308)rotate(-60)scale(0.24 -0.24)">
       <use xlink:href="#ArialMT-67"/>
       <use x="72.216797" xlink:href="#ArialMT-67"/>
       <use x="144.433594" xlink:href="#ArialMT-84"/>
      </g>
     </g>
    </g>
    <g id="xtick_25">
     <g id="line2d_25">
      <path clip-path="url(#p99fec6e532)" d="M 984.834058 1133.915313 
L 984.834058 46.715312 
" style="fill:none;stroke:#ffffff;stroke-linecap:round;"/>
     </g>
     <g id="text_25">
      <!-- CGA -->
      <g style="fill:#262626;" transform="translate(977.205017 1197.045586)rotate(-60)scale(0.24 -0.24)">
       <use xlink:href="#ArialMT-67"/>
       <use x="72.216797" xlink:href="#ArialMT-71"/>
       <use x="150" xlink:href="#ArialMT-65"/>
      </g>
     </g>
    </g>
    <g id="xtick_26">
     <g id="line2d_26">
      <path clip-path="url(#p99fec6e532)" d="M 1017.041851 1133.915313 
L 1017.041851 46.715312 
" style="fill:none;stroke:#ffffff;stroke-linecap:round;"/>
     </g>
     <g id="text_26">
      <!-- CGC -->
      <g style="fill:#262626;" transform="translate(1009.081872 1198.191987)rotate(-60)scale(0.24 -0.24)">
       <use xlink:href="#ArialMT-67"/>
       <use x="72.216797" xlink:href="#ArialMT-71"/>
       <use x="150" xlink:href="#ArialMT-67"/>
      </g>
     </g>
    </g>
    <g id="xtick_27">
     <g id="line2d_27">
      <path clip-path="url(#p99fec6e532)" d="M 1049.249643 1133.915313 
L 1049.249643 46.715312 
" style="fill:none;stroke:#ffffff;stroke-linecap:round;"/>
     </g>
     <g id="text_27">
      <!-- CGG -->
      <g style="fill:#262626;" transform="translate(1040.955914 1199.348131)rotate(-60)scale(0.24 -0.24)">
       <use xlink:href="#ArialMT-67"/>
       <use x="72.216797" xlink:href="#ArialMT-71"/>
       <use x="150" xlink:href="#ArialMT-71"/>
      </g>
     </g>
    </g>
    <g id="xtick_28">
     <g id="line2d_28">
      <path clip-path="url(#p99fec6e532)" d="M 1081.457435 1133.915313 
L 1081.457435 46.715312 
" style="fill:none;stroke:#ffffff;stroke-linecap:round;"/>
     </g>
     <g id="text_28">
      <!-- CGT -->
      <g style="fill:#262626;" transform="translate(1074.165894 1195.876452)rotate(-60)scale(0.24 -0.24)">
       <use xlink:href="#ArialMT-67"/>
       <use x="72.216797" xlink:href="#ArialMT-71"/>
       <use x="150" xlink:href="#ArialMT-84"/>
      </g>
     </g>
    </g>
    <g id="xtick_29">
     <g id="line2d_29">
      <path clip-path="url(#p99fec6e532)" d="M 1113.665227 1133.915313 
L 1113.665227 46.715312 
" style="fill:none;stroke:#ffffff;stroke-linecap:round;"/>
     </g>
     <g id="text_29">
      <!-- CTA -->
      <g style="fill:#262626;" transform="translate(1107.480874 1192.041042)rotate(-60)scale(0.24 -0.24)">
       <use xlink:href="#ArialMT-67"/>
       <use x="72.216797" xlink:href="#ArialMT-84"/>
       <use x="125.925781" xlink:href="#ArialMT-65"/>
      </g>
     </g>
    </g>
    <g id="xtick_30">
     <g id="line2d_30">
      <path clip-path="url(#p99fec6e532)" d="M 1145.873019 1133.915313 
L 1145.873019 46.715312 
" style="fill:none;stroke:#ffffff;stroke-linecap:round;"/>
     </g>
     <g id="text_30">
      <!-- CTC -->
      <g style="fill:#262626;" transform="translate(1138.915228 1194.720308)rotate(-60)scale(0.24 -0.24)">
       <use xlink:href="#ArialMT-67"/>
       <use x="72.216797" xlink:href="#ArialMT-84"/>
       <use x="133.300781" xlink:href="#ArialMT-67"/>
      </g>
     </g>
    </g>
    <g id="xtick_31">
     <g id="line2d_31">
      <path clip-path="url(#p99fec6e532)" d="M 1178.080812 1133.915313 
L 1178.080812 46.715312 
" style="fill:none;stroke:#ffffff;stroke-linecap:round;"/>
     </g>
     <g id="text_31">
      <!-- CTG -->
      <g style="fill:#262626;" transform="translate(1170.789271 1195.876452)rotate(-60)scale(0.24 -0.24)">
       <use xlink:href="#ArialMT-67"/>
       <use x="72.216797" xlink:href="#ArialMT-84"/>
       <use x="133.300781" xlink:href="#ArialMT-71"/>
      </g>
     </g>
    </g>
    <g id="xtick_32">
     <g id="line2d_32">
      <path clip-path="url(#p99fec6e532)" d="M 1210.288604 1133.915313 
L 1210.288604 46.715312 
" style="fill:none;stroke:#ffffff;stroke-linecap:round;"/>
     </g>
     <g id="text_32">
      <!-- CTT -->
      <g style="fill:#262626;" transform="translate(1203.99925 1192.404773)rotate(-60)scale(0.24 -0.24)">
       <use xlink:href="#ArialMT-67"/>
       <use x="72.216797" xlink:href="#ArialMT-84"/>
       <use x="133.300781" xlink:href="#ArialMT-84"/>
      </g>
     </g>
    </g>
    <g id="xtick_33">
     <g id="line2d_33">
      <path clip-path="url(#p99fec6e532)" d="M 1242.496396 1133.915313 
L 1242.496396 46.715312 
" style="fill:none;stroke:#ffffff;stroke-linecap:round;"/>
     </g>
     <g id="text_33">
      <!-- GAA -->
      <g style="fill:#262626;" transform="translate(1235.198292 1195.899185)rotate(-60)scale(0.24 -0.24)">
       <use xlink:href="#ArialMT-71"/>
       <use x="77.783203" xlink:href="#ArialMT-65"/>
       <use x="144.482422" xlink:href="#ArialMT-65"/>
      </g>
     </g>
    </g>
    <g id="xtick_34">
     <g id="line2d_34">
      <path clip-path="url(#p99fec6e532)" d="M 1274.704188 1133.915313 
L 1274.704188 46.715312 
" style="fill:none;stroke:#ffffff;stroke-linecap:round;"/>
     </g>
     <g id="text_34">
      <!-- GAC -->
      <g style="fill:#262626;" transform="translate(1267.075147 1197.045586)rotate(-60)scale(0.24 -0.24)">
       <use xlink:href="#ArialMT-71"/>
       <use x="77.783203" xlink:href="#ArialMT-65"/>
       <use x="144.482422" xlink:href="#ArialMT-67"/>
      </g>
     </g>
    </g>
    <g id="xtick_35">
     <g id="line2d_35">
      <path clip-path="url(#p99fec6e532)" d="M 1306.911981 1133.915313 
L 1306.911981 46.715312 
" style="fill:none;stroke:#ffffff;stroke-linecap:round;"/>
     </g>
     <g id="text_35">
      <!-- GAG -->
      <g style="fill:#262626;" transform="translate(1298.949189 1198.20173)rotate(-60)scale(0.24 -0.24)">
       <use xlink:href="#ArialMT-71"/>
       <use x="77.783203" xlink:href="#ArialMT-65"/>
       <use x="144.482422" xlink:href="#ArialMT-71"/>
      </g>
     </g>
    </g>
    <g id="xtick_36">
     <g id="line2d_36">
      <path clip-path="url(#p99fec6e532)" d="M 1339.119773 1133.915313 
L 1339.119773 46.715312 
" style="fill:none;stroke:#ffffff;stroke-linecap:round;"/>
     </g>
     <g id="text_36">
      <!-- GAT -->
      <g style="fill:#262626;" transform="translate(1332.601669 1193.197186)rotate(-60)scale(0.24 -0.24)">
       <use xlink:href="#ArialMT-71"/>
       <use x="77.783203" xlink:href="#ArialMT-65"/>
       <use x="137.107422" xlink:href="#ArialMT-84"/>
      </g>
     </g>
    </g>
    <g id="xtick_37">
     <g id="line2d_37">
      <path clip-path="url(#p99fec6e532)" d="M 1371.327565 1133.915313 
L 1371.327565 46.715312 
" style="fill:none;stroke:#ffffff;stroke-linecap:round;"/>
     </g>
     <g id="text_37">
      <!-- GCA -->
      <g style="fill:#262626;" transform="translate(1363.698524 1197.045586)rotate(-60)scale(0.24 -0.24)">
       <use xlink:href="#ArialMT-71"/>
       <use x="77.783203" xlink:href="#ArialMT-67"/>
       <use x="150" xlink:href="#ArialMT-65"/>
      </g>
     </g>
    </g>
    <g id="xtick_38">
     <g id="line2d_38">
      <path clip-path="url(#p99fec6e532)" d="M 1403.535357 1133.915313 
L 1403.535357 46.715312 
" style="fill:none;stroke:#ffffff;stroke-linecap:round;"/>
     </g>
     <g id="text_38">
      <!-- GCC -->
      <g style="fill:#262626;" transform="translate(1395.575379 1198.191987)rotate(-60)scale(0.24 -0.24)">
       <use xlink:href="#ArialMT-71"/>
       <use x="77.783203" xlink:href="#ArialMT-67"/>
       <use x="150" xlink:href="#ArialMT-67"/>
      </g>
     </g>
    </g>
    <g id="xtick_39">
     <g id="line2d_39">
      <path clip-path="url(#p99fec6e532)" d="M 1435.743149 1133.915313 
L 1435.743149 46.715312 
" style="fill:none;stroke:#ffffff;stroke-linecap:round;"/>
     </g>
     <g id="text_39">
      <!-- GCG -->
      <g style="fill:#262626;" transform="translate(1427.449421 1199.348131)rotate(-60)scale(0.24 -0.24)">
       <use xlink:href="#ArialMT-71"/>
       <use x="77.783203" xlink:href="#ArialMT-67"/>
       <use x="150" xlink:href="#ArialMT-71"/>
      </g>
     </g>
    </g>
    <g id="xtick_40">
     <g id="line2d_40">
      <path clip-path="url(#p99fec6e532)" d="M 1467.950942 1133.915313 
L 1467.950942 46.715312 
" style="fill:none;stroke:#ffffff;stroke-linecap:round;"/>
     </g>
     <g id="text_40">
      <!-- GCT -->
      <g style="fill:#262626;" transform="translate(1460.6594 1195.876452)rotate(-60)scale(0.24 -0.24)">
       <use xlink:href="#ArialMT-71"/>
       <use x="77.783203" xlink:href="#ArialMT-67"/>
       <use x="150" xlink:href="#ArialMT-84"/>
      </g>
     </g>
    </g>
    <g id="xtick_41">
     <g id="line2d_41">
      <path clip-path="url(#p99fec6e532)" d="M 1500.158734 1133.915313 
L 1500.158734 46.715312 
" style="fill:none;stroke:#ffffff;stroke-linecap:round;"/>
     </g>
     <g id="text_41">
      <!-- GGA -->
      <g style="fill:#262626;" transform="translate(1492.195943 1198.20173)rotate(-60)scale(0.24 -0.24)">
       <use xlink:href="#ArialMT-71"/>
       <use x="77.783203" xlink:href="#ArialMT-71"/>
       <use x="155.566406" xlink:href="#ArialMT-65"/>
      </g>
     </g>
    </g>
    <g id="xtick_42">
     <g id="line2d_42">
      <path clip-path="url(#p99fec6e532)" d="M 1532.366526 1133.915313 
L 1532.366526 46.715312 
" style="fill:none;stroke:#ffffff;stroke-linecap:round;"/>
     </g>
     <g id="text_42">
      <!-- GGC -->
      <g style="fill:#262626;" transform="translate(1524.072797 1199.348131)rotate(-60)scale(0.24 -0.24)">
       <use xlink:href="#ArialMT-71"/>
       <use x="77.783203" xlink:href="#ArialMT-71"/>
       <use x="155.566406" xlink:href="#ArialMT-67"/>
      </g>
     </g>
    </g>
    <g id="xtick_43">
     <g id="line2d_43">
      <path clip-path="url(#p99fec6e532)" d="M 1564.574318 1133.915313 
L 1564.574318 46.715312 
" style="fill:none;stroke:#ffffff;stroke-linecap:round;"/>
     </g>
     <g id="text_43">
      <!-- GGG -->
      <g style="fill:#262626;" transform="translate(1555.94684 1200.504275)rotate(-60)scale(0.24 -0.24)">
       <use xlink:href="#ArialMT-71"/>
       <use x="77.783203" xlink:href="#ArialMT-71"/>
       <use x="155.566406" xlink:href="#ArialMT-71"/>
      </g>
     </g>
    </g>
    <g id="xtick_44">
     <g id="line2d_44">
      <path clip-path="url(#p99fec6e532)" d="M 1596.78211 1133.915313 
L 1596.78211 46.715312 
" style="fill:none;stroke:#ffffff;stroke-linecap:round;"/>
     </g>
     <g id="text_44">
      <!-- GGT -->
      <g style="fill:#262626;" transform="translate(1589.156819 1197.032596)rotate(-60)scale(0.24 -0.24)">
       <use xlink:href="#ArialMT-71"/>
       <use x="77.783203" xlink:href="#ArialMT-71"/>
       <use x="155.566406" xlink:href="#ArialMT-84"/>
      </g>
     </g>
    </g>
    <g id="xtick_45">
     <g id="line2d_45">
      <path clip-path="url(#p99fec6e532)" d="M 1628.989903 1133.915313 
L 1628.989903 46.715312 
" style="fill:none;stroke:#ffffff;stroke-linecap:round;"/>
     </g>
     <g id="text_45">
      <!-- GTA -->
      <g style="fill:#262626;" transform="translate(1622.471799 1193.197186)rotate(-60)scale(0.24 -0.24)">
       <use xlink:href="#ArialMT-71"/>
       <use x="77.783203" xlink:href="#ArialMT-84"/>
       <use x="131.492188" xlink:href="#ArialMT-65"/>
      </g>
     </g>
    </g>
    <g id="xtick_46">
     <g id="line2d_46">
      <path clip-path="url(#p99fec6e532)" d="M 1661.197695 1133.915313 
L 1661.197695 46.715312 
" style="fill:none;stroke:#ffffff;stroke-linecap:round;"/>
     </g>
     <g id="text_46">
      <!-- GTC -->
      <g style="fill:#262626;" transform="translate(1653.906154 1195.876452)rotate(-60)scale(0.24 -0.24)">
       <use xlink:href="#ArialMT-71"/>
       <use x="77.783203" xlink:href="#ArialMT-84"/>
       <use x="138.867188" xlink:href="#ArialMT-67"/>
      </g>
     </g>
    </g>
    <g id="xtick_47">
     <g id="line2d_47">
      <path clip-path="url(#p99fec6e532)" d="M 1693.405487 1133.915313 
L 1693.405487 46.715312 
" style="fill:none;stroke:#ffffff;stroke-linecap:round;"/>
     </g>
     <g id="text_47">
      <!-- GTG -->
      <g style="fill:#262626;" transform="translate(1685.780196 1197.032596)rotate(-60)scale(0.24 -0.24)">
       <use xlink:href="#ArialMT-71"/>
       <use x="77.783203" xlink:href="#ArialMT-84"/>
       <use x="138.867188" xlink:href="#ArialMT-71"/>
      </g>
     </g>
    </g>
    <g id="xtick_48">
     <g id="line2d_48">
      <path clip-path="url(#p99fec6e532)" d="M 1725.613279 1133.915313 
L 1725.613279 46.715312 
" style="fill:none;stroke:#ffffff;stroke-linecap:round;"/>
     </g>
     <g id="text_48">
      <!-- GTT -->
      <g style="fill:#262626;" transform="translate(1718.990176 1193.560917)rotate(-60)scale(0.24 -0.24)">
       <use xlink:href="#ArialMT-71"/>
       <use x="77.783203" xlink:href="#ArialMT-84"/>
       <use x="138.867188" xlink:href="#ArialMT-84"/>
      </g>
     </g>
    </g>
    <g id="xtick_49">
     <g id="line2d_49">
      <path clip-path="url(#p99fec6e532)" d="M 1757.821071 1133.915313 
L 1757.821071 46.715312 
" style="fill:none;stroke:#ffffff;stroke-linecap:round;"/>
     </g>
     <g id="text_49">
      <!-- TAA -->
      <g style="fill:#262626;" transform="translate(1751.967655 1190.894641)rotate(-60)scale(0.24 -0.24)">
       <use xlink:href="#ArialMT-84"/>
       <use x="53.708984" xlink:href="#ArialMT-65"/>
       <use x="120.408203" xlink:href="#ArialMT-65"/>
      </g>
     </g>
    </g>
    <g id="xtick_50">
     <g id="line2d_50">
      <path clip-path="url(#p99fec6e532)" d="M 1790.028864 1133.915313 
L 1790.028864 46.715312 
" style="fill:none;stroke:#ffffff;stroke-linecap:round;"/>
     </g>
     <g id="text_50">
      <!-- TAC -->
      <g style="fill:#262626;" transform="translate(1783.84451 1192.041042)rotate(-60)scale(0.24 -0.24)">
       <use xlink:href="#ArialMT-84"/>
       <use x="53.708984" xlink:href="#ArialMT-65"/>
       <use x="120.408203" xlink:href="#ArialMT-67"/>
      </g>
     </g>
    </g>
    <g id="xtick_51">
     <g id="line2d_51">
      <path clip-path="url(#p99fec6e532)" d="M 1822.236656 1133.915313 
L 1822.236656 46.715312 
" style="fill:none;stroke:#ffffff;stroke-linecap:round;"/>
     </g>
     <g id="text_51">
      <!-- TAG -->
      <g style="fill:#262626;" transform="translate(1815.718552 1193.197186)rotate(-60)scale(0.24 -0.24)">
       <use xlink:href="#ArialMT-84"/>
       <use x="53.708984" xlink:href="#ArialMT-65"/>
       <use x="120.408203" xlink:href="#ArialMT-71"/>
      </g>
     </g>
    </g>
    <g id="xtick_52">
     <g id="line2d_52">
      <path clip-path="url(#p99fec6e532)" d="M 1854.444448 1133.915313 
L 1854.444448 46.715312 
" style="fill:none;stroke:#ffffff;stroke-linecap:round;"/>
     </g>
     <g id="text_52">
      <!-- TAT -->
      <g style="fill:#262626;" transform="translate(1849.371032 1188.192642)rotate(-60)scale(0.24 -0.24)">
       <use xlink:href="#ArialMT-84"/>
       <use x="53.708984" xlink:href="#ArialMT-65"/>
       <use x="113.033203" xlink:href="#ArialMT-84"/>
      </g>
     </g>
    </g>
    <g id="xtick_53">
     <g id="line2d_53">
      <path clip-path="url(#p99fec6e532)" d="M 1886.65224 1133.915313 
L 1886.65224 46.715312 
" style="fill:none;stroke:#ffffff;stroke-linecap:round;"/>
     </g>
     <g id="text_53">
      <!-- TCA -->
      <g style="fill:#262626;" transform="translate(1880.025387 1193.573907)rotate(-60)scale(0.24 -0.24)">
       <use xlink:href="#ArialMT-84"/>
       <use x="61.083984" xlink:href="#ArialMT-67"/>
       <use x="133.300781" xlink:href="#ArialMT-65"/>
      </g>
     </g>
    </g>
    <g id="xtick_54">
     <g id="line2d_54">
      <path clip-path="url(#p99fec6e532)" d="M 1918.860032 1133.915313 
L 1918.860032 46.715312 
" style="fill:none;stroke:#ffffff;stroke-linecap:round;"/>
     </g>
     <g id="text_54">
      <!-- TCC -->
      <g style="fill:#262626;" transform="translate(1911.902241 1194.720308)rotate(-60)scale(0.24 -0.24)">
       <use xlink:href="#ArialMT-84"/>
       <use x="61.083984" xlink:href="#ArialMT-67"/>
       <use x="133.300781" xlink:href="#ArialMT-67"/>
      </g>
     </g>
    </g>
    <g id="xtick_55">
     <g id="line2d_55">
      <path clip-path="url(#p99fec6e532)" d="M 1951.067825 1133.915313 
L 1951.067825 46.715312 
" style="fill:none;stroke:#ffffff;stroke-linecap:round;"/>
     </g>
     <g id="text_55">
      <!-- TCG -->
      <g style="fill:#262626;" transform="translate(1943.776284 1195.876452)rotate(-60)scale(0.24 -0.24)">
       <use xlink:href="#ArialMT-84"/>
       <use x="61.083984" xlink:href="#ArialMT-67"/>
       <use x="133.300781" xlink:href="#ArialMT-71"/>
      </g>
     </g>
    </g>
    <g id="xtick_56">
     <g id="line2d_56">
      <path clip-path="url(#p99fec6e532)" d="M 1983.275617 1133.915313 
L 1983.275617 46.715312 
" style="fill:none;stroke:#ffffff;stroke-linecap:round;"/>
     </g>
     <g id="text_56">
      <!-- TCT -->
      <g style="fill:#262626;" transform="translate(1976.986263 1192.404773)rotate(-60)scale(0.24 -0.24)">
       <use xlink:href="#ArialMT-84"/>
       <use x="61.083984" xlink:href="#ArialMT-67"/>
       <use x="133.300781" xlink:href="#ArialMT-84"/>
      </g>
     </g>
    </g>
    <g id="xtick_57">
     <g id="line2d_57">
      <path clip-path="url(#p99fec6e532)" d="M 2015.483409 1133.915313 
L 2015.483409 46.715312 
" style="fill:none;stroke:#ffffff;stroke-linecap:round;"/>
     </g>
     <g id="text_57">
      <!-- TGA -->
      <g style="fill:#262626;" transform="translate(2008.522805 1194.730051)rotate(-60)scale(0.24 -0.24)">
       <use xlink:href="#ArialMT-84"/>
       <use x="61.083984" xlink:href="#ArialMT-71"/>
       <use x="138.867188" xlink:href="#ArialMT-65"/>
      </g>
     </g>
    </g>
    <g id="xtick_58">
     <g id="line2d_58">
      <path clip-path="url(#p99fec6e532)" d="M 2047.691201 1133.915313 
L 2047.691201 46.715312 
" style="fill:none;stroke:#ffffff;stroke-linecap:round;"/>
     </g>
     <g id="text_58">
      <!-- TGC -->
      <g style="fill:#262626;" transform="translate(2040.39966 1195.876452)rotate(-60)scale(0.24 -0.24)">
       <use xlink:href="#ArialMT-84"/>
       <use x="61.083984" xlink:href="#ArialMT-71"/>
       <use x="138.867188" xlink:href="#ArialMT-67"/>
      </g>
     </g>
    </g>
    <g id="xtick_59">
     <g id="line2d_59">
      <path clip-path="url(#p99fec6e532)" d="M 2079.898994 1133.915313 
L 2079.898994 46.715312 
" style="fill:none;stroke:#ffffff;stroke-linecap:round;"/>
     </g>
     <g id="text_59">
      <!-- TGG -->
      <g style="fill:#262626;" transform="translate(2072.273702 1197.032596)rotate(-60)scale(0.24 -0.24)">
       <use xlink:href="#ArialMT-84"/>
       <use x="61.083984" xlink:href="#ArialMT-71"/>
       <use x="138.867188" xlink:href="#ArialMT-71"/>
      </g>
     </g>
    </g>
    <g id="xtick_60">
     <g id="line2d_60">
      <path clip-path="url(#p99fec6e532)" d="M 2112.106786 1133.915313 
L 2112.106786 46.715312 
" style="fill:none;stroke:#ffffff;stroke-linecap:round;"/>
     </g>
     <g id="text_60">
      <!-- TGT -->
      <g style="fill:#262626;" transform="translate(2105.483682 1193.560917)rotate(-60)scale(0.24 -0.24)">
       <use xlink:href="#ArialMT-84"/>
       <use x="61.083984" xlink:href="#ArialMT-71"/>
       <use x="138.867188" xlink:href="#ArialMT-84"/>
      </g>
     </g>
    </g>
    <g id="xtick_61">
     <g id="line2d_61">
      <path clip-path="url(#p99fec6e532)" d="M 2144.314578 1133.915313 
L 2144.314578 46.715312 
" style="fill:none;stroke:#ffffff;stroke-linecap:round;"/>
     </g>
     <g id="text_61">
      <!-- TTA -->
      <g style="fill:#262626;" transform="translate(2138.798662 1189.725506)rotate(-60)scale(0.24 -0.24)">
       <use xlink:href="#ArialMT-84"/>
       <use x="61.083984" xlink:href="#ArialMT-84"/>
       <use x="114.792969" xlink:href="#ArialMT-65"/>
      </g>
     </g>
    </g>
    <g id="xtick_62">
     <g id="line2d_62">
      <path clip-path="url(#p99fec6e532)" d="M 2176.52237 1133.915313 
L 2176.52237 46.715312 
" style="fill:none;stroke:#ffffff;stroke-linecap:round;"/>
     </g>
     <g id="text_62">
      <!-- TTC -->
      <g style="fill:#262626;" transform="translate(2170.233016 1192.404773)rotate(-60)scale(0.24 -0.24)">
       <use xlink:href="#ArialMT-84"/>
       <use x="61.083984" xlink:href="#ArialMT-84"/>
       <use x="122.167969" xlink:href="#ArialMT-67"/>
      </g>
     </g>
    </g>
    <g id="xtick_63">
     <g id="line2d_63">
      <path clip-path="url(#p99fec6e532)" d="M 2208.730162 1133.915313 
L 2208.730162 46.715312 
" style="fill:none;stroke:#ffffff;stroke-linecap:round;"/>
     </g>
     <g id="text_63">
      <!-- TTG -->
      <g style="fill:#262626;" transform="translate(2202.107059 1193.560917)rotate(-60)scale(0.24 -0.24)">
       <use xlink:href="#ArialMT-84"/>
       <use x="61.083984" xlink:href="#ArialMT-84"/>
       <use x="122.167969" xlink:href="#ArialMT-71"/>
      </g>
     </g>
    </g>
    <g id="xtick_64">
     <g id="line2d_64">
      <path clip-path="url(#p99fec6e532)" d="M 2240.937955 1133.915313 
L 2240.937955 46.715312 
" style="fill:none;stroke:#ffffff;stroke-linecap:round;"/>
     </g>
     <g id="text_64">
      <!-- TTT -->
      <g style="fill:#262626;" transform="translate(2235.317038 1190.089237)rotate(-60)scale(0.24 -0.24)">
       <use xlink:href="#ArialMT-84"/>
       <use x="61.083984" xlink:href="#ArialMT-84"/>
       <use x="122.167969" xlink:href="#ArialMT-84"/>
      </g>
     </g>
    </g>
    <g id="text_65">
     <!-- Trimer -->
     <defs>
      <path d="M 6.5 0 
L 6.5 51.859375 
L 14.40625 51.859375 
L 14.40625 44 
Q 17.4375 49.515625 20 51.265625 
Q 22.5625 53.03125 25.640625 53.03125 
Q 30.078125 53.03125 34.671875 50.203125 
L 31.640625 42.046875 
Q 28.421875 43.953125 25.203125 43.953125 
Q 22.3125 43.953125 20.015625 42.21875 
Q 17.71875 40.484375 16.75 37.40625 
Q 15.28125 32.71875 15.28125 27.15625 
L 15.28125 0 
z
" id="ArialMT-114"/>
      <path d="M 6.640625 61.46875 
L 6.640625 71.578125 
L 15.4375 71.578125 
L 15.4375 61.46875 
z
M 6.640625 0 
L 6.640625 51.859375 
L 15.4375 51.859375 
L 15.4375 0 
z
" id="ArialMT-105"/>
      <path d="M 6.59375 0 
L 6.59375 51.859375 
L 14.453125 51.859375 
L 14.453125 44.578125 
Q 16.890625 48.390625 20.9375 50.703125 
Q 25 53.03125 30.171875 53.03125 
Q 35.9375 53.03125 39.625 50.640625 
Q 43.3125 48.25 44.828125 43.953125 
Q 50.984375 53.03125 60.84375 53.03125 
Q 68.5625 53.03125 72.703125 48.75 
Q 76.859375 44.484375 76.859375 35.59375 
L 76.859375 0 
L 68.109375 0 
L 68.109375 32.671875 
Q 68.109375 37.9375 67.25 40.25 
Q 66.40625 42.578125 64.15625 43.984375 
Q 61.921875 45.40625 58.890625 45.40625 
Q 53.421875 45.40625 49.796875 41.765625 
Q 46.1875 38.140625 46.1875 30.125 
L 46.1875 0 
L 37.40625 0 
L 37.40625 33.6875 
Q 37.40625 39.546875 35.25 42.46875 
Q 33.109375 45.40625 28.21875 45.40625 
Q 24.515625 45.40625 21.359375 43.453125 
Q 18.21875 41.5 16.796875 37.734375 
Q 15.375 33.984375 15.375 26.90625 
L 15.375 0 
z
" id="ArialMT-109"/>
      <path d="M 42.09375 16.703125 
L 51.171875 15.578125 
Q 49.03125 7.625 43.21875 3.21875 
Q 37.40625 -1.171875 28.375 -1.171875 
Q 17 -1.171875 10.328125 5.828125 
Q 3.65625 12.84375 3.65625 25.484375 
Q 3.65625 38.578125 10.390625 45.796875 
Q 17.140625 53.03125 27.875 53.03125 
Q 38.28125 53.03125 44.875 45.953125 
Q 51.46875 38.875 51.46875 26.03125 
Q 51.46875 25.25 51.421875 23.6875 
L 12.75 23.6875 
Q 13.234375 15.140625 17.578125 10.59375 
Q 21.921875 6.0625 28.421875 6.0625 
Q 33.25 6.0625 36.671875 8.59375 
Q 40.09375 11.140625 42.09375 16.703125 
z
M 13.234375 30.90625 
L 42.1875 30.90625 
Q 41.609375 37.453125 38.875 40.71875 
Q 34.671875 45.796875 27.984375 45.796875 
Q 21.921875 45.796875 17.796875 41.75 
Q 13.671875 37.703125 13.234375 30.90625 
z
" id="ArialMT-101"/>
     </defs>
     <g style="fill:#262626;" transform="translate(1180.785 1229.794275)scale(0.32 -0.32)">
      <use xlink:href="#ArialMT-84"/>
      <use x="57.333984" xlink:href="#ArialMT-114"/>
      <use x="90.634766" xlink:href="#ArialMT-105"/>
      <use x="112.851562" xlink:href="#ArialMT-109"/>
      <use x="196.152344" xlink:href="#ArialMT-101"/>
      <use x="251.767578" xlink:href="#ArialMT-114"/>
     </g>
    </g>
   </g>
   <g id="matplotlib.axis_2">
    <g id="ytick_1">
     <g id="line2d_65">
      <path clip-path="url(#p99fec6e532)" d="M 110.3925 991.459085 
L 2342.3925 991.459085 
" style="fill:none;stroke:#ffffff;stroke-linecap:round;"/>
     </g>
     <g id="text_66">
      <!-- 0.005 -->
      <defs>
       <path d="M 4.15625 35.296875 
Q 4.15625 48 6.765625 55.734375 
Q 9.375 63.484375 14.515625 67.671875 
Q 19.671875 71.875 27.484375 71.875 
Q 33.25 71.875 37.59375 69.546875 
Q 41.9375 67.234375 44.765625 62.859375 
Q 47.609375 58.5 49.21875 52.21875 
Q 50.828125 45.953125 50.828125 35.296875 
Q 50.828125 22.703125 48.234375 14.96875 
Q 45.65625 7.234375 40.5 3 
Q 35.359375 -1.21875 27.484375 -1.21875 
Q 17.140625 -1.21875 11.234375 6.203125 
Q 4.15625 15.140625 4.15625 35.296875 
z
M 13.1875 35.296875 
Q 13.1875 17.671875 17.3125 11.828125 
Q 21.4375 6 27.484375 6 
Q 33.546875 6 37.671875 11.859375 
Q 41.796875 17.71875 41.796875 35.296875 
Q 41.796875 52.984375 37.671875 58.78125 
Q 33.546875 64.59375 27.390625 64.59375 
Q 21.34375 64.59375 17.71875 59.46875 
Q 13.1875 52.9375 13.1875 35.296875 
z
" id="ArialMT-48"/>
       <path d="M 9.078125 0 
L 9.078125 10.015625 
L 19.09375 10.015625 
L 19.09375 0 
z
" id="ArialMT-46"/>
       <path d="M 4.15625 18.75 
L 13.375 19.53125 
Q 14.40625 12.796875 18.140625 9.390625 
Q 21.875 6 27.15625 6 
Q 33.5 6 37.890625 10.78125 
Q 42.28125 15.578125 42.28125 23.484375 
Q 42.28125 31 38.0625 35.34375 
Q 33.84375 39.703125 27 39.703125 
Q 22.75 39.703125 19.328125 37.765625 
Q 15.921875 35.84375 13.96875 32.765625 
L 5.71875 33.84375 
L 12.640625 70.609375 
L 48.25 70.609375 
L 48.25 62.203125 
L 19.671875 62.203125 
L 15.828125 42.96875 
Q 22.265625 47.46875 29.34375 47.46875 
Q 38.71875 47.46875 45.15625 40.96875 
Q 51.609375 34.46875 51.609375 24.265625 
Q 51.609375 14.546875 45.953125 7.46875 
Q 39.0625 -1.21875 27.15625 -1.21875 
Q 17.390625 -1.21875 11.203125 4.25 
Q 5.03125 9.71875 4.15625 18.75 
z
" id="ArialMT-53"/>
      </defs>
      <g style="fill:#262626;" transform="translate(40.84 1000.04846)scale(0.24 -0.24)">
       <use xlink:href="#ArialMT-48"/>
       <use x="55.615234" xlink:href="#ArialMT-46"/>
       <use x="83.398438" xlink:href="#ArialMT-48"/>
       <use x="139.013672" xlink:href="#ArialMT-48"/>
       <use x="194.628906" xlink:href="#ArialMT-53"/>
      </g>
     </g>
    </g>
    <g id="ytick_2">
     <g id="line2d_66">
      <path clip-path="url(#p99fec6e532)" d="M 110.3925 807.225392 
L 2342.3925 807.225392 
" style="fill:none;stroke:#ffffff;stroke-linecap:round;"/>
     </g>
     <g id="text_67">
      <!-- 0.010 -->
      <defs>
       <path d="M 37.25 0 
L 28.46875 0 
L 28.46875 56 
Q 25.296875 52.984375 20.140625 49.953125 
Q 14.984375 46.921875 10.890625 45.40625 
L 10.890625 53.90625 
Q 18.265625 57.375 23.78125 62.296875 
Q 29.296875 67.234375 31.59375 71.875 
L 37.25 71.875 
z
" id="ArialMT-49"/>
      </defs>
      <g style="fill:#262626;" transform="translate(40.84 815.814767)scale(0.24 -0.24)">
       <use xlink:href="#ArialMT-48"/>
       <use x="55.615234" xlink:href="#ArialMT-46"/>
       <use x="83.398438" xlink:href="#ArialMT-48"/>
       <use x="139.013672" xlink:href="#ArialMT-49"/>
       <use x="194.628906" xlink:href="#ArialMT-48"/>
      </g>
     </g>
    </g>
    <g id="ytick_3">
     <g id="line2d_67">
      <path clip-path="url(#p99fec6e532)" d="M 110.3925 622.991699 
L 2342.3925 622.991699 
" style="fill:none;stroke:#ffffff;stroke-linecap:round;"/>
     </g>
     <g id="text_68">
      <!-- 0.015 -->
      <g style="fill:#262626;" transform="translate(40.84 631.581074)scale(0.24 -0.24)">
       <use xlink:href="#ArialMT-48"/>
       <use x="55.615234" xlink:href="#ArialMT-46"/>
       <use x="83.398438" xlink:href="#ArialMT-48"/>
       <use x="139.013672" xlink:href="#ArialMT-49"/>
       <use x="194.628906" xlink:href="#ArialMT-53"/>
      </g>
     </g>
    </g>
    <g id="ytick_4">
     <g id="line2d_68">
      <path clip-path="url(#p99fec6e532)" d="M 110.3925 438.758006 
L 2342.3925 438.758006 
" style="fill:none;stroke:#ffffff;stroke-linecap:round;"/>
     </g>
     <g id="text_69">
      <!-- 0.020 -->
      <defs>
       <path d="M 50.34375 8.453125 
L 50.34375 0 
L 3.03125 0 
Q 2.9375 3.171875 4.046875 6.109375 
Q 5.859375 10.9375 9.828125 15.625 
Q 13.8125 20.3125 21.34375 26.46875 
Q 33.015625 36.03125 37.109375 41.625 
Q 41.21875 47.21875 41.21875 52.203125 
Q 41.21875 57.421875 37.46875 61 
Q 33.734375 64.59375 27.734375 64.59375 
Q 21.390625 64.59375 17.578125 60.78125 
Q 13.765625 56.984375 13.71875 50.25 
L 4.6875 51.171875 
Q 5.609375 61.28125 11.65625 66.578125 
Q 17.71875 71.875 27.9375 71.875 
Q 38.234375 71.875 44.234375 66.15625 
Q 50.25 60.453125 50.25 52 
Q 50.25 47.703125 48.484375 43.546875 
Q 46.734375 39.40625 42.65625 34.8125 
Q 38.578125 30.21875 29.109375 22.21875 
Q 21.1875 15.578125 18.9375 13.203125 
Q 16.703125 10.84375 15.234375 8.453125 
z
" id="ArialMT-50"/>
      </defs>
      <g style="fill:#262626;" transform="translate(40.84 447.347381)scale(0.24 -0.24)">
       <use xlink:href="#ArialMT-48"/>
       <use x="55.615234" xlink:href="#ArialMT-46"/>
       <use x="83.398438" xlink:href="#ArialMT-48"/>
       <use x="139.013672" xlink:href="#ArialMT-50"/>
       <use x="194.628906" xlink:href="#ArialMT-48"/>
      </g>
     </g>
    </g>
    <g id="ytick_5">
     <g id="line2d_69">
      <path clip-path="url(#p99fec6e532)" d="M 110.3925 254.524313 
L 2342.3925 254.524313 
" style="fill:none;stroke:#ffffff;stroke-linecap:round;"/>
     </g>
     <g id="text_70">
      <!-- 0.025 -->
      <g style="fill:#262626;" transform="translate(40.84 263.113688)scale(0.24 -0.24)">
       <use xlink:href="#ArialMT-48"/>
       <use x="55.615234" xlink:href="#ArialMT-46"/>
       <use x="83.398438" xlink:href="#ArialMT-48"/>
       <use x="139.013672" xlink:href="#ArialMT-50"/>
       <use x="194.628906" xlink:href="#ArialMT-53"/>
      </g>
     </g>
    </g>
    <g id="ytick_6">
     <g id="line2d_70">
      <path clip-path="url(#p99fec6e532)" d="M 110.3925 70.29062 
L 2342.3925 70.29062 
" style="fill:none;stroke:#ffffff;stroke-linecap:round;"/>
     </g>
     <g id="text_71">
      <!-- 0.030 -->
      <defs>
       <path d="M 4.203125 18.890625 
L 12.984375 20.0625 
Q 14.5 12.59375 18.140625 9.296875 
Q 21.78125 6 27 6 
Q 33.203125 6 37.46875 10.296875 
Q 41.75 14.59375 41.75 20.953125 
Q 41.75 27 37.796875 30.921875 
Q 33.84375 34.859375 27.734375 34.859375 
Q 25.25 34.859375 21.53125 33.890625 
L 22.515625 41.609375 
Q 23.390625 41.5 23.921875 41.5 
Q 29.546875 41.5 34.03125 44.421875 
Q 38.53125 47.359375 38.53125 53.46875 
Q 38.53125 58.296875 35.25 61.46875 
Q 31.984375 64.65625 26.8125 64.65625 
Q 21.6875 64.65625 18.265625 61.421875 
Q 14.84375 58.203125 13.875 51.765625 
L 5.078125 53.328125 
Q 6.6875 62.15625 12.390625 67.015625 
Q 18.109375 71.875 26.609375 71.875 
Q 32.46875 71.875 37.390625 69.359375 
Q 42.328125 66.84375 44.9375 62.5 
Q 47.5625 58.15625 47.5625 53.265625 
Q 47.5625 48.640625 45.0625 44.828125 
Q 42.578125 41.015625 37.703125 38.765625 
Q 44.046875 37.3125 47.5625 32.6875 
Q 51.078125 28.078125 51.078125 21.140625 
Q 51.078125 11.765625 44.234375 5.25 
Q 37.40625 -1.265625 26.953125 -1.265625 
Q 17.53125 -1.265625 11.296875 4.34375 
Q 5.078125 9.96875 4.203125 18.890625 
z
" id="ArialMT-51"/>
      </defs>
      <g style="fill:#262626;" transform="translate(40.84 78.879995)scale(0.24 -0.24)">
       <use xlink:href="#ArialMT-48"/>
       <use x="55.615234" xlink:href="#ArialMT-46"/>
       <use x="83.398438" xlink:href="#ArialMT-48"/>
       <use x="139.013672" xlink:href="#ArialMT-51"/>
       <use x="194.628906" xlink:href="#ArialMT-48"/>
      </g>
     </g>
    </g>
    <g id="text_72">
     <!-- Normalized Frequency -->
     <defs>
      <path d="M 7.625 0 
L 7.625 71.578125 
L 17.328125 71.578125 
L 54.9375 15.375 
L 54.9375 71.578125 
L 64.015625 71.578125 
L 64.015625 0 
L 54.296875 0 
L 16.703125 56.25 
L 16.703125 0 
z
" id="ArialMT-78"/>
      <path d="M 3.328125 25.921875 
Q 3.328125 40.328125 11.328125 47.265625 
Q 18.015625 53.03125 27.640625 53.03125 
Q 38.328125 53.03125 45.109375 46.015625 
Q 51.90625 39.015625 51.90625 26.65625 
Q 51.90625 16.65625 48.90625 10.90625 
Q 45.90625 5.171875 40.15625 2 
Q 34.421875 -1.171875 27.640625 -1.171875 
Q 16.75 -1.171875 10.03125 5.8125 
Q 3.328125 12.796875 3.328125 25.921875 
z
M 12.359375 25.921875 
Q 12.359375 15.96875 16.703125 11.015625 
Q 21.046875 6.0625 27.640625 6.0625 
Q 34.1875 6.0625 38.53125 11.03125 
Q 42.875 16.015625 42.875 26.21875 
Q 42.875 35.84375 38.5 40.796875 
Q 34.125 45.75 27.640625 45.75 
Q 21.046875 45.75 16.703125 40.8125 
Q 12.359375 35.890625 12.359375 25.921875 
z
" id="ArialMT-111"/>
      <path d="M 40.4375 6.390625 
Q 35.546875 2.25 31.03125 0.53125 
Q 26.515625 -1.171875 21.34375 -1.171875 
Q 12.796875 -1.171875 8.203125 3 
Q 3.609375 7.171875 3.609375 13.671875 
Q 3.609375 17.484375 5.34375 20.625 
Q 7.078125 23.78125 9.890625 25.6875 
Q 12.703125 27.59375 16.21875 28.5625 
Q 18.796875 29.25 24.03125 29.890625 
Q 34.671875 31.15625 39.703125 32.90625 
Q 39.75 34.71875 39.75 35.203125 
Q 39.75 40.578125 37.25 42.78125 
Q 33.890625 45.75 27.25 45.75 
Q 21.046875 45.75 18.09375 43.578125 
Q 15.140625 41.40625 13.71875 35.890625 
L 5.125 37.0625 
Q 6.296875 42.578125 8.984375 45.96875 
Q 11.671875 49.359375 16.75 51.1875 
Q 21.828125 53.03125 28.515625 53.03125 
Q 35.15625 53.03125 39.296875 51.46875 
Q 43.453125 49.90625 45.40625 47.53125 
Q 47.359375 45.171875 48.140625 41.546875 
Q 48.578125 39.3125 48.578125 33.453125 
L 48.578125 21.734375 
Q 48.578125 9.46875 49.140625 6.21875 
Q 49.703125 2.984375 51.375 0 
L 42.1875 0 
Q 40.828125 2.734375 40.4375 6.390625 
z
M 39.703125 26.03125 
Q 34.90625 24.078125 25.34375 22.703125 
Q 19.921875 21.921875 17.671875 20.9375 
Q 15.4375 19.96875 14.203125 18.09375 
Q 12.984375 16.21875 12.984375 13.921875 
Q 12.984375 10.40625 15.640625 8.0625 
Q 18.3125 5.71875 23.4375 5.71875 
Q 28.515625 5.71875 32.46875 7.9375 
Q 36.421875 10.15625 38.28125 14.015625 
Q 39.703125 17 39.703125 22.796875 
z
" id="ArialMT-97"/>
      <path d="M 6.390625 0 
L 6.390625 71.578125 
L 15.1875 71.578125 
L 15.1875 0 
z
" id="ArialMT-108"/>
      <path d="M 1.953125 0 
L 1.953125 7.125 
L 34.96875 45.015625 
Q 29.34375 44.734375 25.046875 44.734375 
L 3.90625 44.734375 
L 3.90625 51.859375 
L 46.296875 51.859375 
L 46.296875 46.046875 
L 18.21875 13.140625 
L 12.796875 7.125 
Q 18.703125 7.5625 23.875 7.5625 
L 47.859375 7.5625 
L 47.859375 0 
z
" id="ArialMT-122"/>
      <path d="M 40.234375 0 
L 40.234375 6.546875 
Q 35.296875 -1.171875 25.734375 -1.171875 
Q 19.53125 -1.171875 14.328125 2.25 
Q 9.125 5.671875 6.265625 11.796875 
Q 3.421875 17.921875 3.421875 25.875 
Q 3.421875 33.640625 6 39.96875 
Q 8.59375 46.296875 13.765625 49.65625 
Q 18.953125 53.03125 25.34375 53.03125 
Q 30.03125 53.03125 33.6875 51.046875 
Q 37.359375 49.078125 39.65625 45.90625 
L 39.65625 71.578125 
L 48.390625 71.578125 
L 48.390625 0 
z
M 12.453125 25.875 
Q 12.453125 15.921875 16.640625 10.984375 
Q 20.84375 6.0625 26.5625 6.0625 
Q 32.328125 6.0625 36.34375 10.765625 
Q 40.375 15.484375 40.375 25.140625 
Q 40.375 35.796875 36.265625 40.765625 
Q 32.171875 45.75 26.171875 45.75 
Q 20.3125 45.75 16.375 40.96875 
Q 12.453125 36.1875 12.453125 25.875 
z
" id="ArialMT-100"/>
      <path id="ArialMT-32"/>
      <path d="M 8.203125 0 
L 8.203125 71.578125 
L 56.5 71.578125 
L 56.5 63.140625 
L 17.671875 63.140625 
L 17.671875 40.96875 
L 51.265625 40.96875 
L 51.265625 32.515625 
L 17.671875 32.515625 
L 17.671875 0 
z
" id="ArialMT-70"/>
      <path d="M 39.65625 -19.875 
L 39.65625 5.515625 
Q 37.59375 2.640625 33.90625 0.734375 
Q 30.21875 -1.171875 26.078125 -1.171875 
Q 16.84375 -1.171875 10.171875 6.203125 
Q 3.515625 13.578125 3.515625 26.421875 
Q 3.515625 34.234375 6.21875 40.421875 
Q 8.9375 46.625 14.078125 49.828125 
Q 19.234375 53.03125 25.390625 53.03125 
Q 35.015625 53.03125 40.53125 44.921875 
L 40.53125 51.859375 
L 48.4375 51.859375 
L 48.4375 -19.875 
z
M 12.546875 26.078125 
Q 12.546875 16.0625 16.75 11.0625 
Q 20.953125 6.0625 26.8125 6.0625 
Q 32.421875 6.0625 36.46875 10.8125 
Q 40.53125 15.578125 40.53125 25.296875 
Q 40.53125 35.640625 36.25 40.859375 
Q 31.984375 46.09375 26.21875 46.09375 
Q 20.515625 46.09375 16.53125 41.234375 
Q 12.546875 36.375 12.546875 26.078125 
z
" id="ArialMT-113"/>
      <path d="M 40.578125 0 
L 40.578125 7.625 
Q 34.515625 -1.171875 24.125 -1.171875 
Q 19.53125 -1.171875 15.546875 0.578125 
Q 11.578125 2.34375 9.640625 5 
Q 7.71875 7.671875 6.9375 11.53125 
Q 6.390625 14.109375 6.390625 19.734375 
L 6.390625 51.859375 
L 15.1875 51.859375 
L 15.1875 23.09375 
Q 15.1875 16.21875 15.71875 13.8125 
Q 16.546875 10.359375 19.234375 8.375 
Q 21.921875 6.390625 25.875 6.390625 
Q 29.828125 6.390625 33.296875 8.421875 
Q 36.765625 10.453125 38.203125 13.9375 
Q 39.65625 17.4375 39.65625 24.078125 
L 39.65625 51.859375 
L 48.4375 51.859375 
L 48.4375 0 
z
" id="ArialMT-117"/>
      <path d="M 6.59375 0 
L 6.59375 51.859375 
L 14.5 51.859375 
L 14.5 44.484375 
Q 20.21875 53.03125 31 53.03125 
Q 35.6875 53.03125 39.625 51.34375 
Q 43.5625 49.65625 45.515625 46.921875 
Q 47.46875 44.1875 48.25 40.4375 
Q 48.734375 37.984375 48.734375 31.890625 
L 48.734375 0 
L 39.9375 0 
L 39.9375 31.546875 
Q 39.9375 36.921875 38.90625 39.578125 
Q 37.890625 42.234375 35.28125 43.8125 
Q 32.671875 45.40625 29.15625 45.40625 
Q 23.53125 45.40625 19.453125 41.84375 
Q 15.375 38.28125 15.375 28.328125 
L 15.375 0 
z
" id="ArialMT-110"/>
      <path d="M 40.4375 19 
L 49.078125 17.875 
Q 47.65625 8.9375 41.8125 3.875 
Q 35.984375 -1.171875 27.484375 -1.171875 
Q 16.84375 -1.171875 10.375 5.78125 
Q 3.90625 12.75 3.90625 25.734375 
Q 3.90625 34.125 6.6875 40.421875 
Q 9.46875 46.734375 15.15625 49.875 
Q 20.84375 53.03125 27.546875 53.03125 
Q 35.984375 53.03125 41.359375 48.75 
Q 46.734375 44.484375 48.25 36.625 
L 39.703125 35.296875 
Q 38.484375 40.53125 35.375 43.15625 
Q 32.28125 45.796875 27.875 45.796875 
Q 21.234375 45.796875 17.078125 41.03125 
Q 12.9375 36.28125 12.9375 25.984375 
Q 12.9375 15.53125 16.9375 10.796875 
Q 20.953125 6.0625 27.390625 6.0625 
Q 32.5625 6.0625 36.03125 9.234375 
Q 39.5 12.40625 40.4375 19 
z
" id="ArialMT-99"/>
      <path d="M 6.203125 -19.96875 
L 5.21875 -11.71875 
Q 8.109375 -12.5 10.25 -12.5 
Q 13.1875 -12.5 14.9375 -11.515625 
Q 16.703125 -10.546875 17.828125 -8.796875 
Q 18.65625 -7.46875 20.515625 -2.25 
Q 20.75 -1.515625 21.296875 -0.09375 
L 1.609375 51.859375 
L 11.078125 51.859375 
L 21.875 21.828125 
Q 23.96875 16.109375 25.640625 9.8125 
Q 27.15625 15.875 29.25 21.625 
L 40.328125 51.859375 
L 49.125 51.859375 
L 29.390625 -0.875 
Q 26.21875 -9.421875 24.46875 -12.640625 
Q 22.125 -17 19.09375 -19.015625 
Q 16.0625 -21.046875 11.859375 -21.046875 
Q 9.328125 -21.046875 6.203125 -19.96875 
z
" id="ArialMT-121"/>
     </defs>
     <g style="fill:#262626;" transform="translate(30.105 751.257812)rotate(-90)scale(0.32 -0.32)">
      <use xlink:href="#ArialMT-78"/>
      <use x="72.216797" xlink:href="#ArialMT-111"/>
      <use x="127.832031" xlink:href="#ArialMT-114"/>
      <use x="161.132812" xlink:href="#ArialMT-109"/>
      <use x="244.433594" xlink:href="#ArialMT-97"/>
      <use x="300.048828" xlink:href="#ArialMT-108"/>
      <use x="322.265625" xlink:href="#ArialMT-105"/>
      <use x="344.482422" xlink:href="#ArialMT-122"/>
      <use x="394.482422" xlink:href="#ArialMT-101"/>
      <use x="450.097656" xlink:href="#ArialMT-100"/>
      <use x="505.712891" xlink:href="#ArialMT-32"/>
      <use x="533.496094" xlink:href="#ArialMT-70"/>
      <use x="594.580078" xlink:href="#ArialMT-114"/>
      <use x="627.880859" xlink:href="#ArialMT-101"/>
      <use x="683.496094" xlink:href="#ArialMT-113"/>
      <use x="739.111328" xlink:href="#ArialMT-117"/>
      <use x="794.726562" xlink:href="#ArialMT-101"/>
      <use x="850.341797" xlink:href="#ArialMT-110"/>
      <use x="905.957031" xlink:href="#ArialMT-99"/>
      <use x="955.957031" xlink:href="#ArialMT-121"/>
     </g>
    </g>
   </g>
   <g id="line2d_71">
    <path clip-path="url(#p99fec6e532)" d="M 211.847045 369.720436 
L 244.054838 417.783007 
L 276.26263 460.916083 
L 308.470422 237.85646 
L 340.678214 245.250701 
L 372.886006 712.3203 
L 405.093799 973.583506 
L 437.301591 345.072964 
L 469.509383 473.239819 
L 501.717175 804.748321 
L 533.924968 770.24186 
L 566.13276 550.879357 
L 598.340552 623.5894 
L 630.548344 757.918124 
L 662.756136 282.22191 
L 694.963929 223.067976 
L 727.171721 309.334129 
L 759.379513 650.701619 
L 791.587305 635.913136 
L 823.795097 579.22395 
L 856.00289 739.432519 
L 888.210682 1049.99067 
L 920.418474 1084.497131 
L 952.626266 751.756256 
L 984.834058 1058.617285 
L 1017.041851 1059.849658 
L 1049.249643 1082.032383 
L 1081.457435 964.95689 
L 1113.665227 484.331182 
L 1145.873019 844.184276 
L 1178.080812 565.66784 
L 1210.288604 266.201053 
L 1242.496396 516.372896 
L 1274.704188 756.68575 
L 1306.911981 828.16342 
L 1339.119773 633.448389 
L 1371.327565 717.249794 
L 1403.535357 945.238913 
L 1435.743149 1070.941021 
L 1467.950942 533.626126 
L 1500.158734 828.16342 
L 1532.366526 900.873463 
L 1564.574318 1029.040318 
L 1596.78211 616.195158 
L 1628.989903 597.709554 
L 1661.197695 844.184276 
L 1693.405487 537.323247 
L 1725.613279 313.03125 
L 1757.821071 289.616151 
L 1790.028864 425.177249 
L 1822.236656 649.469246 
L 1854.444448 442.430479 
L 1886.65224 499.119665 
L 1918.860032 918.126693 
L 1951.067825 1036.43456 
L 1983.275617 548.41461 
L 2015.483409 399.297403 
L 2047.691201 501.584412 
L 2079.898994 492.957797 
L 2112.106786 188.561515 
L 2144.314578 96.133494 
L 2176.52237 537.323247 
L 2208.730162 168.843537 
L 2240.937955 301.939887 
" style="fill:none;stroke:#ff0000;stroke-linecap:round;stroke-width:5;"/>
   </g>
   <g id="patch_3">
    <path d="M 110.3925 1133.915313 
L 110.3925 46.715312 
" style="fill:none;stroke:#ffffff;stroke-linecap:square;stroke-linejoin:miter;stroke-width:1.25;"/>
   </g>
   <g id="patch_4">
    <path d="M 2342.3925 1133.915313 
L 2342.3925 46.715312 
" style="fill:none;stroke:#ffffff;stroke-linecap:square;stroke-linejoin:miter;stroke-width:1.25;"/>
   </g>
   <g id="patch_5">
    <path d="M 110.3925 1133.915313 
L 2342.3925 1133.915313 
" style="fill:none;stroke:#ffffff;stroke-linecap:square;stroke-linejoin:miter;stroke-width:1.25;"/>
   </g>
   <g id="patch_6">
    <path d="M 110.3925 46.715312 
L 2342.3925 46.715312 
" style="fill:none;stroke:#ffffff;stroke-linecap:square;stroke-linejoin:miter;stroke-width:1.25;"/>
   </g>
   <g id="text_73">
    <!-- Trimer Composition of COVID-19 Ref Sequence NC_045512 -->
    <defs>
     <path d="M 6.59375 -19.875 
L 6.59375 51.859375 
L 14.59375 51.859375 
L 14.59375 45.125 
Q 17.4375 49.078125 21 51.046875 
Q 24.5625 53.03125 29.640625 53.03125 
Q 36.28125 53.03125 41.359375 49.609375 
Q 46.4375 46.1875 49.015625 39.953125 
Q 51.609375 33.734375 51.609375 26.3125 
Q 51.609375 18.359375 48.75 11.984375 
Q 45.90625 5.609375 40.453125 2.21875 
Q 35.015625 -1.171875 29 -1.171875 
Q 24.609375 -1.171875 21.109375 0.6875 
Q 17.625 2.546875 15.375 5.375 
L 15.375 -19.875 
z
M 14.546875 25.640625 
Q 14.546875 15.625 18.59375 10.84375 
Q 22.65625 6.0625 28.421875 6.0625 
Q 34.28125 6.0625 38.453125 11.015625 
Q 42.625 15.96875 42.625 26.375 
Q 42.625 36.28125 38.546875 41.203125 
Q 34.46875 46.140625 28.8125 46.140625 
Q 23.1875 46.140625 18.859375 40.890625 
Q 14.546875 35.640625 14.546875 25.640625 
z
" id="ArialMT-112"/>
     <path d="M 3.078125 15.484375 
L 11.765625 16.84375 
Q 12.5 11.625 15.84375 8.84375 
Q 19.1875 6.0625 25.203125 6.0625 
Q 31.25 6.0625 34.171875 8.515625 
Q 37.109375 10.984375 37.109375 14.3125 
Q 37.109375 17.28125 34.515625 19 
Q 32.71875 20.171875 25.53125 21.96875 
Q 15.875 24.421875 12.140625 26.203125 
Q 8.40625 27.984375 6.46875 31.125 
Q 4.546875 34.28125 4.546875 38.09375 
Q 4.546875 41.546875 6.125 44.5 
Q 7.71875 47.46875 10.453125 49.421875 
Q 12.5 50.921875 16.03125 51.96875 
Q 19.578125 53.03125 23.640625 53.03125 
Q 29.734375 53.03125 34.34375 51.265625 
Q 38.96875 49.515625 41.15625 46.5 
Q 43.359375 43.5 44.1875 38.484375 
L 35.59375 37.3125 
Q 35.015625 41.3125 32.203125 43.546875 
Q 29.390625 45.796875 24.265625 45.796875 
Q 18.21875 45.796875 15.625 43.796875 
Q 13.03125 41.796875 13.03125 39.109375 
Q 13.03125 37.40625 14.109375 36.03125 
Q 15.1875 34.625 17.484375 33.6875 
Q 18.796875 33.203125 25.25 31.453125 
Q 34.578125 28.953125 38.25 27.359375 
Q 41.9375 25.78125 44.03125 22.75 
Q 46.140625 19.734375 46.140625 15.234375 
Q 46.140625 10.84375 43.578125 6.953125 
Q 41.015625 3.078125 36.171875 0.953125 
Q 31.34375 -1.171875 25.25 -1.171875 
Q 15.140625 -1.171875 9.84375 3.03125 
Q 4.546875 7.234375 3.078125 15.484375 
z
" id="ArialMT-115"/>
     <path d="M 25.78125 7.859375 
L 27.046875 0.09375 
Q 23.34375 -0.6875 20.40625 -0.6875 
Q 15.625 -0.6875 12.984375 0.828125 
Q 10.359375 2.34375 9.28125 4.8125 
Q 8.203125 7.28125 8.203125 15.1875 
L 8.203125 45.015625 
L 1.765625 45.015625 
L 1.765625 51.859375 
L 8.203125 51.859375 
L 8.203125 64.703125 
L 16.9375 69.96875 
L 16.9375 51.859375 
L 25.78125 51.859375 
L 25.78125 45.015625 
L 16.9375 45.015625 
L 16.9375 14.703125 
Q 16.9375 10.9375 17.40625 9.859375 
Q 17.875 8.796875 18.921875 8.15625 
Q 19.96875 7.515625 21.921875 7.515625 
Q 23.390625 7.515625 25.78125 7.859375 
z
" id="ArialMT-116"/>
     <path d="M 8.6875 0 
L 8.6875 45.015625 
L 0.921875 45.015625 
L 0.921875 51.859375 
L 8.6875 51.859375 
L 8.6875 57.375 
Q 8.6875 62.59375 9.625 65.140625 
Q 10.890625 68.5625 14.078125 70.671875 
Q 17.28125 72.796875 23.046875 72.796875 
Q 26.765625 72.796875 31.25 71.921875 
L 29.9375 64.265625 
Q 27.203125 64.75 24.75 64.75 
Q 20.75 64.75 19.09375 63.03125 
Q 17.4375 61.328125 17.4375 56.640625 
L 17.4375 51.859375 
L 27.546875 51.859375 
L 27.546875 45.015625 
L 17.4375 45.015625 
L 17.4375 0 
z
" id="ArialMT-102"/>
     <path d="M 4.828125 34.859375 
Q 4.828125 52.6875 14.390625 62.765625 
Q 23.96875 72.859375 39.109375 72.859375 
Q 49.03125 72.859375 56.984375 68.109375 
Q 64.9375 63.375 69.109375 54.90625 
Q 73.296875 46.4375 73.296875 35.6875 
Q 73.296875 24.8125 68.890625 16.21875 
Q 64.5 7.625 56.4375 3.203125 
Q 48.390625 -1.21875 39.0625 -1.21875 
Q 28.953125 -1.21875 20.984375 3.65625 
Q 13.03125 8.546875 8.921875 16.984375 
Q 4.828125 25.4375 4.828125 34.859375 
z
M 14.59375 34.71875 
Q 14.59375 21.78125 21.546875 14.328125 
Q 28.515625 6.890625 39.015625 6.890625 
Q 49.703125 6.890625 56.609375 14.40625 
Q 63.53125 21.921875 63.53125 35.75 
Q 63.53125 44.484375 60.578125 51 
Q 57.625 57.515625 51.921875 61.109375 
Q 46.234375 64.703125 39.15625 64.703125 
Q 29.109375 64.703125 21.84375 57.78125 
Q 14.59375 50.875 14.59375 34.71875 
z
" id="ArialMT-79"/>
     <path d="M 28.171875 0 
L 0.4375 71.578125 
L 10.6875 71.578125 
L 29.296875 19.578125 
Q 31.546875 13.328125 33.0625 7.859375 
Q 34.71875 13.71875 36.921875 19.578125 
L 56.25 71.578125 
L 65.921875 71.578125 
L 37.890625 0 
z
" id="ArialMT-86"/>
     <path d="M 9.328125 0 
L 9.328125 71.578125 
L 18.796875 71.578125 
L 18.796875 0 
z
" id="ArialMT-73"/>
     <path d="M 7.71875 0 
L 7.71875 71.578125 
L 32.375 71.578125 
Q 40.71875 71.578125 45.125 70.5625 
Q 51.265625 69.140625 55.609375 65.4375 
Q 61.28125 60.640625 64.078125 53.1875 
Q 66.890625 45.75 66.890625 36.1875 
Q 66.890625 28.03125 64.984375 21.734375 
Q 63.09375 15.4375 60.109375 11.296875 
Q 57.125 7.171875 53.578125 4.796875 
Q 50.046875 2.4375 45.046875 1.21875 
Q 40.046875 0 33.546875 0 
z
M 17.1875 8.453125 
L 32.46875 8.453125 
Q 39.546875 8.453125 43.578125 9.765625 
Q 47.609375 11.078125 50 13.484375 
Q 53.375 16.84375 55.25 22.53125 
Q 57.125 28.21875 57.125 36.328125 
Q 57.125 47.5625 53.4375 53.59375 
Q 49.75 59.625 44.484375 61.671875 
Q 40.671875 63.140625 32.234375 63.140625 
L 17.1875 63.140625 
z
" id="ArialMT-68"/>
     <path d="M 3.171875 21.484375 
L 3.171875 30.328125 
L 30.171875 30.328125 
L 30.171875 21.484375 
z
" id="ArialMT-45"/>
     <path d="M 5.46875 16.546875 
L 13.921875 17.328125 
Q 14.984375 11.375 18.015625 8.6875 
Q 21.046875 6 25.78125 6 
Q 29.828125 6 32.875 7.859375 
Q 35.9375 9.71875 37.890625 12.8125 
Q 39.84375 15.921875 41.15625 21.1875 
Q 42.484375 26.46875 42.484375 31.9375 
Q 42.484375 32.515625 42.4375 33.6875 
Q 39.796875 29.5 35.234375 26.875 
Q 30.671875 24.265625 25.34375 24.265625 
Q 16.453125 24.265625 10.296875 30.703125 
Q 4.15625 37.15625 4.15625 47.703125 
Q 4.15625 58.59375 10.578125 65.234375 
Q 17 71.875 26.65625 71.875 
Q 33.640625 71.875 39.421875 68.109375 
Q 45.21875 64.359375 48.21875 57.390625 
Q 51.21875 50.4375 51.21875 37.25 
Q 51.21875 23.53125 48.234375 15.40625 
Q 45.265625 7.28125 39.375 3.03125 
Q 33.5 -1.21875 25.59375 -1.21875 
Q 17.1875 -1.21875 11.859375 3.4375 
Q 6.546875 8.109375 5.46875 16.546875 
z
M 41.453125 48.140625 
Q 41.453125 55.71875 37.421875 60.15625 
Q 33.40625 64.59375 27.734375 64.59375 
Q 21.875 64.59375 17.53125 59.8125 
Q 13.1875 55.03125 13.1875 47.40625 
Q 13.1875 40.578125 17.3125 36.296875 
Q 21.4375 32.03125 27.484375 32.03125 
Q 33.59375 32.03125 37.515625 36.296875 
Q 41.453125 40.578125 41.453125 48.140625 
z
" id="ArialMT-57"/>
     <path d="M 7.859375 0 
L 7.859375 71.578125 
L 39.59375 71.578125 
Q 49.171875 71.578125 54.140625 69.640625 
Q 59.125 67.71875 62.109375 62.828125 
Q 65.09375 57.953125 65.09375 52.046875 
Q 65.09375 44.4375 60.15625 39.203125 
Q 55.21875 33.984375 44.921875 32.5625 
Q 48.6875 30.765625 50.640625 29 
Q 54.78125 25.203125 58.5 19.484375 
L 70.953125 0 
L 59.03125 0 
L 49.5625 14.890625 
Q 45.40625 21.34375 42.71875 24.75 
Q 40.046875 28.171875 37.921875 29.53125 
Q 35.796875 30.90625 33.59375 31.453125 
Q 31.984375 31.78125 28.328125 31.78125 
L 17.328125 31.78125 
L 17.328125 0 
z
M 17.328125 39.984375 
L 37.703125 39.984375 
Q 44.1875 39.984375 47.84375 41.328125 
Q 51.515625 42.671875 53.421875 45.625 
Q 55.328125 48.578125 55.328125 52.046875 
Q 55.328125 57.125 51.640625 60.390625 
Q 47.953125 63.671875 39.984375 63.671875 
L 17.328125 63.671875 
z
" id="ArialMT-82"/>
     <path d="M 4.5 23 
L 13.421875 23.78125 
Q 14.0625 18.40625 16.375 14.96875 
Q 18.703125 11.53125 23.578125 9.40625 
Q 28.46875 7.28125 34.578125 7.28125 
Q 39.984375 7.28125 44.140625 8.890625 
Q 48.296875 10.5 50.3125 13.296875 
Q 52.34375 16.109375 52.34375 19.4375 
Q 52.34375 22.796875 50.390625 25.3125 
Q 48.4375 27.828125 43.953125 29.546875 
Q 41.0625 30.671875 31.203125 33.03125 
Q 21.34375 35.40625 17.390625 37.5 
Q 12.25 40.1875 9.734375 44.15625 
Q 7.234375 48.140625 7.234375 53.078125 
Q 7.234375 58.5 10.296875 63.203125 
Q 13.375 67.921875 19.28125 70.359375 
Q 25.203125 72.796875 32.421875 72.796875 
Q 40.375 72.796875 46.453125 70.234375 
Q 52.546875 67.671875 55.8125 62.6875 
Q 59.078125 57.71875 59.328125 51.421875 
L 50.25 50.734375 
Q 49.515625 57.515625 45.28125 60.984375 
Q 41.0625 64.453125 32.8125 64.453125 
Q 24.21875 64.453125 20.28125 61.296875 
Q 16.359375 58.15625 16.359375 53.71875 
Q 16.359375 49.859375 19.140625 47.359375 
Q 21.875 44.875 33.421875 42.265625 
Q 44.96875 39.65625 49.265625 37.703125 
Q 55.515625 34.8125 58.484375 30.390625 
Q 61.46875 25.984375 61.46875 20.21875 
Q 61.46875 14.5 58.203125 9.4375 
Q 54.9375 4.390625 48.796875 1.578125 
Q 42.671875 -1.21875 35.015625 -1.21875 
Q 25.296875 -1.21875 18.71875 1.609375 
Q 12.15625 4.4375 8.421875 10.125 
Q 4.6875 15.828125 4.5 23 
z
" id="ArialMT-83"/>
     <path d="M -1.515625 -19.875 
L -1.515625 -13.53125 
L 56.734375 -13.53125 
L 56.734375 -19.875 
z
" id="ArialMT-95"/>
     <path d="M 32.328125 0 
L 32.328125 17.140625 
L 1.265625 17.140625 
L 1.265625 25.203125 
L 33.9375 71.578125 
L 41.109375 71.578125 
L 41.109375 25.203125 
L 50.78125 25.203125 
L 50.78125 17.140625 
L 41.109375 17.140625 
L 41.109375 0 
z
M 32.328125 25.203125 
L 32.328125 57.46875 
L 9.90625 25.203125 
z
" id="ArialMT-52"/>
    </defs>
    <g style="fill:#262626;" transform="translate(607.279219 40.715312)scale(0.46 -0.46)">
     <use xlink:href="#ArialMT-84"/>
     <use x="57.333984" xlink:href="#ArialMT-114"/>
     <use x="90.634766" xlink:href="#ArialMT-105"/>
     <use x="112.851562" xlink:href="#ArialMT-109"/>
     <use x="196.152344" xlink:href="#ArialMT-101"/>
     <use x="251.767578" xlink:href="#ArialMT-114"/>
     <use x="285.068359" xlink:href="#ArialMT-32"/>
     <use x="312.851562" xlink:href="#ArialMT-67"/>
     <use x="385.068359" xlink:href="#ArialMT-111"/>
     <use x="440.683594" xlink:href="#ArialMT-109"/>
     <use x="523.984375" xlink:href="#ArialMT-112"/>
     <use x="579.599609" xlink:href="#ArialMT-111"/>
     <use x="635.214844" xlink:href="#ArialMT-115"/>
     <use x="685.214844" xlink:href="#ArialMT-105"/>
     <use x="707.431641" xlink:href="#ArialMT-116"/>
     <use x="735.214844" xlink:href="#ArialMT-105"/>
     <use x="757.431641" xlink:href="#ArialMT-111"/>
     <use x="813.046875" xlink:href="#ArialMT-110"/>
     <use x="868.662109" xlink:href="#ArialMT-32"/>
     <use x="896.445312" xlink:href="#ArialMT-111"/>
     <use x="952.060547" xlink:href="#ArialMT-102"/>
     <use x="979.84375" xlink:href="#ArialMT-32"/>
     <use x="1007.626953" xlink:href="#ArialMT-67"/>
     <use x="1079.84375" xlink:href="#ArialMT-79"/>
     <use x="1157.626953" xlink:href="#ArialMT-86"/>
     <use x="1224.326172" xlink:href="#ArialMT-73"/>
     <use x="1252.109375" xlink:href="#ArialMT-68"/>
     <use x="1324.326172" xlink:href="#ArialMT-45"/>
     <use x="1357.626953" xlink:href="#ArialMT-49"/>
     <use x="1413.242188" xlink:href="#ArialMT-57"/>
     <use x="1468.857422" xlink:href="#ArialMT-32"/>
     <use x="1496.640625" xlink:href="#ArialMT-82"/>
     <use x="1568.857422" xlink:href="#ArialMT-101"/>
     <use x="1624.472656" xlink:href="#ArialMT-102"/>
     <use x="1652.255859" xlink:href="#ArialMT-32"/>
     <use x="1680.039062" xlink:href="#ArialMT-83"/>
     <use x="1746.738281" xlink:href="#ArialMT-101"/>
     <use x="1802.353516" xlink:href="#ArialMT-113"/>
     <use x="1857.96875" xlink:href="#ArialMT-117"/>
     <use x="1913.583984" xlink:href="#ArialMT-101"/>
     <use x="1969.199219" xlink:href="#ArialMT-110"/>
     <use x="2024.814453" xlink:href="#ArialMT-99"/>
     <use x="2074.814453" xlink:href="#ArialMT-101"/>
     <use x="2130.429688" xlink:href="#ArialMT-32"/>
     <use x="2158.212891" xlink:href="#ArialMT-78"/>
     <use x="2230.429688" xlink:href="#ArialMT-67"/>
     <use x="2302.646484" xlink:href="#ArialMT-95"/>
     <use x="2358.261719" xlink:href="#ArialMT-48"/>
     <use x="2413.876953" xlink:href="#ArialMT-52"/>
     <use x="2469.492188" xlink:href="#ArialMT-53"/>
     <use x="2525.107422" xlink:href="#ArialMT-53"/>
     <use x="2580.722656" xlink:href="#ArialMT-49"/>
     <use x="2636.337891" xlink:href="#ArialMT-50"/>
    </g>
   </g>
  </g>
 </g>
 <defs>
  <clipPath id="p99fec6e532">
   <rect height="1087.2" width="2232" x="110.3925" y="46.715312"/>
  </clipPath>
 </defs>
</svg>
